<svg xmlns="http://www.w3.org/2000/svg" width="640" height="400" viewBox="0 0 640 400" role="img" aria-labelledby="fw-title fw-desc">
  <title id="fw-title">AI Agent Firewall project artwork</title>
  <desc id="fw-desc">Shield and policy rules representing a firewall for AI agent actions.</desc>
  <defs>
    <linearGradient id="fwGrad" x1="0" y1="1" x2="1" y2="0">
      <stop offset="0%" stop-color="#0D1F2D"/>
      <stop offset="100%" stop-color="#183344"/>
    </linearGradient>
  </defs>
  <rect width="640" height="400" fill="url(#fwGrad)" rx="28"/>

  <!-- Shield -->
  <path d="M200 80 L280 80 L280 200 Q280 250 240 270 Q200 250 200 200 Z" fill="none" stroke="#38BDF8" stroke-width="3" opacity="0.9"/>
  <path d="M215 80 L265 80 L265 198 Q265 238 240 255 Q215 238 215 198 Z" fill="#38BDF8" opacity="0.12"/>
  <path d="M225 155 L237 168 L258 143" stroke="#38BDF8" stroke-width="3.5" fill="none" stroke-linecap="round" stroke-linejoin="round"/>

  <!-- Policy rule cards -->
  <rect x="330" y="80"  width="260" height="44" rx="8" fill="#163248" stroke="#38BDF8" stroke-width="1" stroke-opacity="0.4"/>
  <rect x="330" y="136" width="260" height="44" rx="8" fill="#163248" stroke="#F59E0B" stroke-width="1" stroke-opacity="0.5"/>
  <rect x="330" y="192" width="260" height="44" rx="8" fill="#163248" stroke="#34D399" stroke-width="1" stroke-opacity="0.4"/>
  <rect x="330" y="248" width="260" height="44" rx="8" fill="#163248" stroke="#38BDF8" stroke-width="1" stroke-opacity="0.3"/>

  <text x="346" y="107" fill="#38BDF8" font-family="'Segoe UI',system-ui,-apple-system" font-size="12" font-weight="600">FORBIDDEN_PHRASE</text>
  <text x="346" y="163" fill="#F59E0B" font-family="'Segoe UI',system-ui,-apple-system" font-size="12" font-weight="600">REQUIRED_DISCLOSURE</text>
  <text x="346" y="219" fill="#34D399" font-family="'Segoe UI',system-ui,-apple-system" font-size="12" font-weight="600">REQUIRE_CITATION</text>
  <text x="346" y="275" fill="#7DD3FC" font-family="'Segoe UI',system-ui,-apple-system" font-size="12" font-weight="600">CHANNEL_RESTRICTION</text>

  <text x="346" y="120" fill="#94A3B8" font-family="'Segoe UI',system-ui,-apple-system" font-size="11">block · escalate</text>
  <text x="346" y="176" fill="#94A3B8" font-family="'Segoe UI',system-ui,-apple-system" font-size="11">block · escalate</text>
  <text x="346" y="232" fill="#94A3B8" font-family="'Segoe UI',system-ui,-apple-system" font-size="11">block · escalate</text>
  <text x="346" y="288" fill="#94A3B8" font-family="'Segoe UI',system-ui,-apple-system" font-size="11">restrict</text>

  <text x="44" y="338" fill="#E0F2FE" font-family="'Segoe UI',system-ui,-apple-system" font-size="28" font-weight="700">AI Agent Firewall</text>
  <text x="44" y="368" fill="#7DD3FC" font-family="'Segoe UI',system-ui,-apple-system" font-size="16" opacity="0.9">Policy-driven guardrails for agent actions</text>
</svg>
