<svg xmlns="http://www.w3.org/2000/svg" width="640" height="400" viewBox="0 0 640 400" role="img" aria-labelledby="title desc">
  <title id="title">Runway FOD Detection project artwork</title>
  <desc id="desc">Illustration of a runway grid with highlighted detection markers.</desc>
  <defs>
    <linearGradient id="fodGradient" x1="0" y1="0" x2="1" y2="1">
      <stop offset="0%" stop-color="#1B1D29"/>
      <stop offset="100%" stop-color="#FF7845"/>
    </linearGradient>
  </defs>
  <rect width="640" height="400" fill="url(#fodGradient)" rx="28"/>
  <g stroke="#FFE5D7" stroke-width="2" opacity="0.75">
    <line x1="80" y1="60" x2="560" y2="60"/>
    <line x1="80" y1="120" x2="560" y2="120"/>
    <line x1="80" y1="180" x2="560" y2="180"/>
    <line x1="80" y1="240" x2="560" y2="240"/>
    <line x1="80" y1="300" x2="560" y2="300"/>
    <line x1="80" y1="360" x2="560" y2="360"/>
    <line x1="140" y1="320" x2="140" y2="80"/>
    <line x1="220" y1="320" x2="220" y2="80"/>
    <line x1="300" y1="320" x2="300" y2="80"/>
    <line x1="380" y1="320" x2="380" y2="80"/>
    <line x1="460" y1="320" x2="460" y2="80"/>
    <line x1="540" y1="320" x2="540" y2="80"/>
  </g>
  <g fill="none" stroke="#FFBCA2" stroke-width="3" stroke-linecap="round">
    <path d="M140 240 L220 210 L300 236 L380 210 L460 224"/>
  </g>
  <g fill="none" stroke="#FFE5D7" stroke-width="3" stroke-linecap="round">
    <circle cx="220" cy="210" r="20"/>
    <circle cx="300" cy="236" r="18"/>
    <circle cx="380" cy="210" r="22"/>
  </g>
  <g fill="none" stroke="#FF7845" stroke-width="6" opacity="0.9">
    <circle cx="300" cy="236" r="32"/>
  </g>
  <text x="44" y="320" fill="#FFF0EB" font-family="'Segoe UI', system-ui, -apple-system" font-size="30" font-weight="600">Runway FOD Detection</text>
  <text x="44" y="352" fill="#FFF0EB" font-family="'Segoe UI', system-ui, -apple-system" font-size="18" opacity="0.85">Computer vision pipeline for debris alerts</text>
</svg>
